HIERARCHY
ROOT Hips
{
 OFFSET 0.000000 0.000000 0.000000
 CHANNELS 6 Xposition Yposition Zposition Yrotation Xrotation Zrotation
 JOINT Chest
 {
  OFFSET 0.000000 9.588913 -0.003946
  CHANNELS 3 Yrotation Xrotation Zrotation
  JOINT Chest2
  {
   OFFSET 0.000000 9.541882 0.008053
   CHANNELS 3 Yrotation Xrotation Zrotation
   JOINT Chest3
   {
    OFFSET 0.000000 9.501360 0.000000
    CHANNELS 3 Yrotation Xrotation Zrotation
    JOINT Chest4
    {
     OFFSET 0.000000 9.491660 0.000000
     CHANNELS 3 Yrotation Xrotation Zrotation
     JOINT Neck
     {
      OFFSET 0.000000 14.331917 0.000000
      CHANNELS 3 Yrotation Xrotation Zrotation
      JOINT Head
      {
       OFFSET 0.000000 8.884799 0.017034
       CHANNELS 3 Yrotation Xrotation Zrotation
       End Site
       {
        OFFSET 0.000000 16.896195 0.008993
       }
      }
     }
     JOINT RightCollar
     {
      OFFSET -2.923010 9.499495 0.000000
      CHANNELS 3 Yrotation Xrotation Zrotation
      JOINT RightShoulder
      {
       OFFSET -13.795216 0.000000 0.000000
       CHANNELS 3 Yrotation Xrotation Zrotation
       JOINT RightElbow
       {
        OFFSET -30.272209 0.000000 0.000000
        CHANNELS 3 Yrotation Xrotation Zrotation
        JOINT RightWrist
        {
         OFFSET -24.478199 0.000000 0.000000
         CHANNELS 3 Yrotation Xrotation Zrotation
         End Site
         {
          OFFSET -18.090752 0.000000 0.000000
         }
        }
       }
      }
     }
     JOINT LeftCollar
     {
      OFFSET 2.923010 9.499495 0.000000
      CHANNELS 3 Yrotation Xrotation Zrotation
      JOINT LeftShoulder
      {
       OFFSET 13.795216 0.000000 0.000000
       CHANNELS 3 Yrotation Xrotation Zrotation
       JOINT LeftElbow
       {
        OFFSET 30.272209 0.000000 0.000000
        CHANNELS 3 Yrotation Xrotation Zrotation
        JOINT LeftWrist
        {
         OFFSET 24.478199 0.000000 0.000000
         CHANNELS 3 Yrotation Xrotation Zrotation
         End Site
         {
          OFFSET 18.090752 0.000000 0.000000
         }
        }
       }
      }
     }
    }
   }
  }
 }
 JOINT RightHip
 {
  OFFSET -7.826875 0.019532 0.001973
  CHANNELS 3 Yrotation Xrotation Zrotation
  JOINT RightKnee
  {
   OFFSET 0.000000 -40.546152 -0.001885
   CHANNELS 3 Yrotation Xrotation Zrotation
   JOINT RightAnkle
   {
    OFFSET 0.000000 -39.417092 -0.003189
    CHANNELS 3 Yrotation Xrotation Zrotation
    JOINT RightToe
    {
     OFFSET 0.000000 -7.579396 17.243563
     CHANNELS 3 Yrotation Xrotation Zrotation
     End Site
     {
      OFFSET 0.000000 -1.500329 6.694466
     }
    }
   }
  }
 }
 JOINT LeftHip
 {
  OFFSET 7.826875 0.019532 0.001973
  CHANNELS 3 Yrotation Xrotation Zrotation
  JOINT LeftKnee
  {
   OFFSET 0.000000 -40.546152 -0.001885
   CHANNELS 3 Yrotation Xrotation Zrotation
   JOINT LeftAnkle
   {
    OFFSET 0.000000 -39.417092 -0.003189
    CHANNELS 3 Yrotation Xrotation Zrotation
    JOINT LeftToe
    {
     OFFSET 0.000000 -7.579396 17.243563
     CHANNELS 3 Yrotation Xrotation Zrotation
     End Site
     {
      OFFSET 0.000000 -1.500329 6.694466
     }
    }
   }
  }
 }
}
MOTION
Frames: 7
Frame Time: 0.008333
154.833280 89.003121 159.339495 56.633619 -4.432153 1.112068 -0.142291 1.279653 -1.306021 -0.097513 0.743413 -0.557588 -0.123024 0.929115 -0.697197 -0.097513 0.743413 -0.557588 -12.858096 23.480024 -1.364272 -14.198942 0.471826 1.432501 4.715869 -5.414796 -1.129334 -5.705332 -23.586021 60.390002 18.573473 -3.070061 1.343111 2.763938 -3.540813 -11.213025 1.004847 -2.717237 2.370230 4.869712 4.577367 -87.335358 -3.867757 5.630350 -2.157481 2.357251 -1.751491 -0.579683 -2.066728 11.206170 0.918851 0.236721 4.870585 -0.994022 -1.786720 -9.714012 -1.590148 -0.006653 -0.388986 -0.011103 -6.687910 8.221313 -3.287421 0.125192 0.310389 -1.078801 -0.441451 -2.605708 1.512864 0.017226 0.341963 -0.035799
154.886985 88.998644 159.367155 56.609504 -4.384905 1.106467 -0.149580 1.275681 -1.299646 -0.101486 0.741315 -0.553376 -0.127979 0.926488 -0.691940 -0.101486 0.741315 -0.553376 -12.890566 23.497195 -1.361133 -14.239620 0.497567 1.443098 4.753615 -5.399811 -1.126295 -5.483538 -23.841504 60.324222 17.913108 -3.096274 1.195646 2.834638 -3.518769 -11.104262 1.025405 -2.708052 2.353919 4.854554 4.566094 -87.343761 -3.758925 5.616481 -2.079032 2.375520 -1.748335 -0.593581 -2.057848 11.210214 0.910403 0.222706 4.851655 -0.986490 -1.764190 -9.740321 -1.575295 -0.008903 -0.387641 -0.016177 -6.695308 8.222566 -3.289349 0.121710 0.300169 -1.078286 -0.423521 -2.636003 1.535229 0.017984 0.343278 -0.036508
154.938658 88.994335 159.393651 56.578809 -4.340334 1.099246 -0.153355 1.274522 -1.292340 -0.103416 0.740809 -0.548603 -0.130381 0.925853 -0.685977 -0.103416 0.740809 -0.548603 -12.924982 23.512661 -1.357100 -14.282874 0.521552 1.455165 4.791033 -5.391729 -1.122557 -5.265634 -24.096066 60.253106 17.255642 -3.144038 1.052348 2.904910 -3.495414 -10.995252 1.043583 -2.703445 2.339168 4.844387 4.557740 -87.357305 -3.648107 5.593487 -2.003113 2.390580 -1.748032 -0.600359 -2.045337 11.213113 0.901986 0.210544 4.836206 -0.975535 -1.741629 -9.766028 -1.562290 -0.010730 -0.387098 -0.020406 -6.697083 8.226381 -3.290937 0.122542 0.288948 -1.074252 -0.409755 -2.665872 1.556106 0.019242 0.345037 -0.037510
154.988325 88.990106 159.418515 56.546319 -4.295675 1.093360 -0.155132 1.275080 -1.285277 -0.104135 0.741022 -0.544611 -0.131272 0.926120 -0.680989 -0.104135 0.741022 -0.544611 -12.959943 23.526550 -1.350119 -14.327522 0.543833 1.470701 4.827705 -5.389537 -1.115440 -5.051014 -24.348622 60.174924 16.599217 -3.190428 0.904406 2.971278 -3.468790 -10.885669 1.056978 -2.700902 2.328868 4.834922 4.553416 -87.375798 -3.538296 5.555981 -1.930732 2.400927 -1.747895 -0.604147 -2.033788 11.211936 0.890645 0.199160 4.824986 -0.961705 -1.719284 -9.793048 -1.552345 -0.011551 -0.386167 -0.022549 -6.696303 8.229138 -3.293771 0.127279 0.276222 -1.070044 -0.399700 -2.693487 1.576316 0.020372 0.346344 -0.037729
155.035866 88.985897 159.441817 56.511776 -4.248903 1.089725 -0.155057 1.275409 -1.278728 -0.103555 0.740974 -0.541604 -0.130541 0.926062 -0.677229 -0.103555 0.740974 -0.541604 -12.994862 23.540729 -1.339595 -14.373040 0.566639 1.490221 4.857567 -5.389177 -1.104264 -4.834648 -24.601101 60.096513 15.940622 -3.209964 0.738264 3.035353 -3.439215 -10.778519 1.066601 -2.695962 2.321925 4.823843 4.550924 -87.397806 -3.431374 5.507517 -1.862267 2.407471 -1.746924 -0.609229 -2.026136 11.206072 0.874742 0.188579 4.815150 -0.944944 -1.693734 -9.820802 -1.545374 -0.011993 -0.383924 -0.023232 -6.694449 8.228996 -3.297576 0.135469 0.261137 -1.067702 -0.390935 -2.718228 1.595011 0.021426 0.346937 -0.035995
155.081331 88.981692 159.464031 56.473234 -4.200110 1.088490 -0.153230 1.274766 -1.272112 -0.101802 0.740294 -0.539141 -0.128344 0.925215 -0.674145 -0.101802 0.740294 -0.539141 -13.028211 23.555786 -1.326137 -14.417426 0.590451 1.512688 4.879823 -5.388757 -1.090886 -4.613613 -24.854583 60.024855 15.276453 -3.191746 0.546772 3.102819 -3.405042 -10.681220 1.075141 -2.687577 2.316290 4.813988 4.548435 -87.423750 -3.326908 5.457359 -1.797822 2.412622 -1.745043 -0.613499 -2.022934 11.195817 0.855312 0.180788 4.806501 -0.927864 -1.665386 -9.849236 -1.539146 -0.012775 -0.380284 -0.023611 -6.689909 8.226567 -3.302209 0.144727 0.243457 -1.067097 -0.381028 -2.740313 1.611690 0.022733 0.346668 -0.032556
155.123496 88.977458 159.487894 56.439863 -4.150929 1.073788 -0.154494 1.274372 -1.248772 -0.100698 0.739287 -0.537313 -0.126959 0.923959 -0.671858 -0.100698 0.739287 -0.537313 -13.059369 23.571052 -1.310108 -14.459816 0.614345 1.537564 4.899681 -5.387794 -1.078312 -4.391843 -25.111996 59.962310 14.601616 -3.140495 0.332700 3.182443 -3.361901 -10.595144 1.083486 -2.676840 2.309903 4.810636 4.545112 -87.450521 -3.223119 5.416278 -1.736910 2.416571 -1.743903 -0.617624 -2.028053 11.182980 0.852446 0.176366 4.804086 -0.914553 -1.636488 -9.900579 -1.533260 -0.014050 -0.357705 -0.024053 -6.686782 8.222253 -3.292242 0.151582 0.224891 -1.064015 -0.368282 -2.737291 1.624455 0.023767 0.324493 -0.029616
